<?xml version="1.0" encoding="UTF-8"?>
<svg xmlns="http://www.w3.org/2000/svg" xmlns:xlink="http://www.w3.org/1999/xlink" width="249pt" height="105pt" viewBox="0 0 249 105" version="1.1">
<g id="surface1">
<path style="fill:none;stroke-width:0.3985;stroke-linecap:butt;stroke-linejoin:miter;stroke:rgb(0%,0%,0%);stroke-opacity:1;stroke-miterlimit:10;" d="M 9.922156 0.00134375 L 29.765906 0.00134375 M 69.4495 0.00134375 L 89.29325 0.00134375 M 128.976844 0.00134375 L 148.820594 0.00134375 M 188.504188 0.00134375 L 208.347938 0.00134375 " transform="matrix(1,0,0,-1,0.613,104.099)"/>
<path style="fill:none;stroke-width:0.3985;stroke-linecap:butt;stroke-linejoin:miter;stroke:rgb(0%,0%,0%);stroke-opacity:1;stroke-miterlimit:10;" d="M 19.844031 17.579469 L 59.527625 17.579469 M 79.371375 17.579469 L 119.054969 17.579469 M 138.898719 17.579469 L 178.582313 17.579469 M 198.426063 17.579469 L 238.113563 17.579469 " transform="matrix(1,0,0,-1,0.613,104.099)"/>
<path style="fill:none;stroke-width:0.3985;stroke-linecap:butt;stroke-linejoin:miter;stroke:rgb(0%,0%,0%);stroke-opacity:1;stroke-miterlimit:10;" d="M 9.922156 34.368531 L 29.765906 34.368531 M 49.60575 34.368531 L 89.29325 34.368531 M 109.133094 34.368531 L 148.820594 34.368531 M 168.664344 34.368531 L 208.347938 34.368531 M 228.191688 34.368531 L 248.031531 34.368531 " transform="matrix(1,0,0,-1,0.613,104.099)"/>
<path style="fill:none;stroke-width:0.3985;stroke-linecap:butt;stroke-linejoin:miter;stroke:rgb(0%,0%,0%);stroke-opacity:1;stroke-miterlimit:10;" d="M 19.844031 51.552125 L 59.527625 51.552125 M 79.371375 51.552125 L 119.054969 51.552125 M 138.898719 51.552125 L 178.582313 51.552125 M 198.426063 51.552125 L 238.113563 51.552125 " transform="matrix(1,0,0,-1,0.613,104.099)"/>
<path style="fill:none;stroke-width:0.3985;stroke-linecap:butt;stroke-linejoin:miter;stroke:rgb(0%,0%,0%);stroke-opacity:1;stroke-miterlimit:10;" d="M 9.922156 68.735719 L 29.765906 68.735719 M 49.60575 68.735719 L 89.29325 68.735719 M 109.133094 68.735719 L 148.820594 68.735719 M 168.664344 68.735719 L 208.347938 68.735719 M 228.191688 68.735719 L 248.031531 68.735719 " transform="matrix(1,0,0,-1,0.613,104.099)"/>
<path style="fill:none;stroke-width:0.3985;stroke-linecap:butt;stroke-linejoin:miter;stroke:rgb(0%,0%,0%);stroke-opacity:1;stroke-miterlimit:10;" d="M 19.844031 85.919313 L 59.527625 85.919313 M 79.371375 85.919313 L 119.054969 85.919313 M 138.898719 85.919313 L 178.582313 85.919313 M 198.426063 85.919313 L 238.113563 85.919313 " transform="matrix(1,0,0,-1,0.613,104.099)"/>
<path style="fill:none;stroke-width:0.3985;stroke-linecap:butt;stroke-linejoin:miter;stroke:rgb(0%,0%,0%);stroke-opacity:1;stroke-miterlimit:10;" d="M 9.922156 103.102906 L 29.765906 103.102906 M 69.4495 103.102906 L 89.29325 103.102906 M 128.976844 103.102906 L 148.820594 103.102906 M 188.504188 103.102906 L 208.347938 103.102906 " transform="matrix(1,0,0,-1,0.613,104.099)"/>
<path style="fill:none;stroke-width:0.3985;stroke-linecap:butt;stroke-linejoin:miter;stroke:rgb(0%,0%,0%);stroke-opacity:1;stroke-miterlimit:10;" d="M 9.922156 0.00134375 L 0.00028125 17.579469 L 9.922156 34.368531 L 0.00028125 51.552125 L 9.922156 68.735719 L 0.00028125 85.919313 L 9.922156 103.102906 " transform="matrix(1,0,0,-1,0.613,104.099)"/>
<path style="fill:none;stroke-width:0.3985;stroke-linecap:butt;stroke-linejoin:miter;stroke:rgb(0%,0%,0%);stroke-opacity:1;stroke-miterlimit:10;" d="M 9.922156 0.00134375 L 19.844031 17.579469 L 9.922156 34.368531 L 19.844031 51.552125 L 9.922156 68.735719 L 19.844031 85.919313 L 9.922156 103.102906 " transform="matrix(1,0,0,-1,0.613,104.099)"/>
<path style="fill:none;stroke-width:0.3985;stroke-linecap:butt;stroke-linejoin:miter;stroke:rgb(0%,0%,0%);stroke-opacity:1;stroke-miterlimit:10;" d="M 29.765906 0.00134375 L 39.683875 17.579469 L 29.765906 34.368531 L 39.683875 51.552125 L 29.765906 68.735719 L 39.683875 85.919313 L 29.765906 103.102906 " transform="matrix(1,0,0,-1,0.613,104.099)"/>
<path style="fill:none;stroke-width:0.3985;stroke-linecap:butt;stroke-linejoin:miter;stroke:rgb(0%,0%,0%);stroke-opacity:1;stroke-miterlimit:10;" d="M 39.683875 17.579469 L 49.60575 34.368531 L 39.683875 51.552125 L 49.60575 68.735719 L 39.683875 85.919313 " transform="matrix(1,0,0,-1,0.613,104.099)"/>
<path style="fill:none;stroke-width:0.3985;stroke-linecap:butt;stroke-linejoin:miter;stroke:rgb(0%,0%,0%);stroke-opacity:1;stroke-miterlimit:10;" d="M 59.527625 17.579469 L 69.4495 34.368531 L 59.527625 51.552125 L 69.4495 68.735719 L 59.527625 85.919313 " transform="matrix(1,0,0,-1,0.613,104.099)"/>
<path style="fill:none;stroke-width:0.3985;stroke-linecap:butt;stroke-linejoin:miter;stroke:rgb(0%,0%,0%);stroke-opacity:1;stroke-miterlimit:10;" d="M 69.4495 0.00134375 L 59.527625 17.579469 M 59.527625 85.919313 L 69.4495 103.102906 " transform="matrix(1,0,0,-1,0.613,104.099)"/>
<path style="fill:none;stroke-width:0.3985;stroke-linecap:butt;stroke-linejoin:miter;stroke:rgb(0%,0%,0%);stroke-opacity:1;stroke-miterlimit:10;" d="M 69.4495 0.00134375 L 79.371375 17.579469 L 69.4495 34.368531 L 79.371375 51.552125 L 69.4495 68.735719 L 79.371375 85.919313 L 69.4495 103.102906 " transform="matrix(1,0,0,-1,0.613,104.099)"/>
<path style="fill:none;stroke-width:0.3985;stroke-linecap:butt;stroke-linejoin:miter;stroke:rgb(0%,0%,0%);stroke-opacity:1;stroke-miterlimit:10;" d="M 89.29325 0.00134375 L 99.215125 17.579469 L 89.29325 34.368531 L 99.215125 51.552125 L 89.29325 68.735719 L 99.215125 85.919313 L 89.29325 103.102906 " transform="matrix(1,0,0,-1,0.613,104.099)"/>
<path style="fill:none;stroke-width:0.3985;stroke-linecap:butt;stroke-linejoin:miter;stroke:rgb(0%,0%,0%);stroke-opacity:1;stroke-miterlimit:10;" d="M 99.215125 17.579469 L 109.133094 34.368531 L 99.215125 51.552125 L 109.133094 68.735719 L 99.215125 85.919313 " transform="matrix(1,0,0,-1,0.613,104.099)"/>
<path style="fill:none;stroke-width:0.3985;stroke-linecap:butt;stroke-linejoin:miter;stroke:rgb(0%,0%,0%);stroke-opacity:1;stroke-miterlimit:10;" d="M 128.976844 0.00134375 L 119.054969 17.579469 L 128.976844 34.368531 L 119.054969 51.552125 L 128.976844 68.735719 L 119.054969 85.919313 L 128.976844 103.102906 " transform="matrix(1,0,0,-1,0.613,104.099)"/>
<path style="fill:none;stroke-width:0.3985;stroke-linecap:butt;stroke-linejoin:miter;stroke:rgb(0%,0%,0%);stroke-opacity:1;stroke-miterlimit:10;" d="M 128.976844 0.00134375 L 138.898719 17.579469 L 128.976844 34.368531 L 138.898719 51.552125 L 128.976844 68.735719 L 138.898719 85.919313 L 128.976844 103.102906 " transform="matrix(1,0,0,-1,0.613,104.099)"/>
<path style="fill:none;stroke-width:0.3985;stroke-linecap:butt;stroke-linejoin:miter;stroke:rgb(0%,0%,0%);stroke-opacity:1;stroke-miterlimit:10;" d="M 148.820594 0.00134375 L 158.742469 17.579469 L 148.820594 34.368531 L 158.742469 51.552125 L 148.820594 68.735719 L 158.742469 85.919313 L 148.820594 103.102906 " transform="matrix(1,0,0,-1,0.613,104.099)"/>
<path style="fill:none;stroke-width:0.3985;stroke-linecap:butt;stroke-linejoin:miter;stroke:rgb(0%,0%,0%);stroke-opacity:1;stroke-miterlimit:10;" d="M 158.742469 17.579469 L 168.664344 34.368531 L 158.742469 51.552125 L 168.664344 68.735719 L 158.742469 85.919313 " transform="matrix(1,0,0,-1,0.613,104.099)"/>
<path style="fill:none;stroke-width:0.3985;stroke-linecap:butt;stroke-linejoin:miter;stroke:rgb(0%,0%,0%);stroke-opacity:1;stroke-miterlimit:10;" d="M 188.504188 0.00134375 L 178.582313 17.579469 L 188.504188 34.368531 L 178.582313 51.552125 L 188.504188 68.735719 L 178.582313 85.919313 L 188.504188 103.102906 " transform="matrix(1,0,0,-1,0.613,104.099)"/>
<path style="fill:none;stroke-width:0.3985;stroke-linecap:butt;stroke-linejoin:miter;stroke:rgb(0%,0%,0%);stroke-opacity:1;stroke-miterlimit:10;" d="M 188.504188 0.00134375 L 198.426063 17.579469 L 188.504188 34.368531 L 198.426063 51.552125 L 188.504188 68.735719 L 198.426063 85.919313 L 188.504188 103.102906 " transform="matrix(1,0,0,-1,0.613,104.099)"/>
<path style="fill:none;stroke-width:0.3985;stroke-linecap:butt;stroke-linejoin:miter;stroke:rgb(0%,0%,0%);stroke-opacity:1;stroke-miterlimit:10;" d="M 208.347938 0.00134375 L 218.269813 17.579469 L 208.347938 34.368531 L 218.269813 51.552125 L 208.347938 68.735719 L 218.269813 85.919313 L 208.347938 103.102906 " transform="matrix(1,0,0,-1,0.613,104.099)"/>
<path style="fill:none;stroke-width:0.3985;stroke-linecap:butt;stroke-linejoin:miter;stroke:rgb(0%,0%,0%);stroke-opacity:1;stroke-miterlimit:10;" d="M 218.269813 17.579469 L 228.191688 34.368531 L 218.269813 51.552125 L 228.191688 68.735719 L 218.269813 85.919313 " transform="matrix(1,0,0,-1,0.613,104.099)"/>
<path style="fill:none;stroke-width:0.3985;stroke-linecap:butt;stroke-linejoin:miter;stroke:rgb(0%,0%,0%);stroke-opacity:1;stroke-miterlimit:10;" d="M 238.113563 17.579469 L 248.031531 34.368531 L 238.113563 51.552125 L 248.031531 68.735719 L 238.113563 85.919313 " transform="matrix(1,0,0,-1,0.613,104.099)"/>
</g>
</svg>
