<?xml version="1.0" encoding="UTF-8"?>
<svg xmlns="http://www.w3.org/2000/svg" xmlns:xlink="http://www.w3.org/1999/xlink" width="313pt" height="122pt" viewBox="0 0 313 122" version="1.1">
<g id="surface1">
<path style="fill:none;stroke-width:0.3985;stroke-linecap:butt;stroke-linejoin:miter;stroke:rgb(0%,0%,0%);stroke-opacity:1;stroke-miterlimit:10;" d="M 0.00028125 -0.0009375 L 28.347938 -21.25875 L 56.691688 -0.0009375 L 85.039344 -21.25875 L 113.387 -0.0009375 L 141.734656 -21.25875 L 170.082313 -0.0009375 L 198.426063 -21.25875 L 226.773719 -0.0009375 L 255.121375 -21.25875 L 283.469031 -0.0009375 " transform="matrix(1,0,0,-1,0.613,100.21)"/>
<path style="fill:none;stroke-width:0.3985;stroke-linecap:butt;stroke-linejoin:miter;stroke:rgb(0%,0%,0%);stroke-opacity:1;stroke-miterlimit:10;" d="M 0.00028125 14.174844 L 28.347938 -7.086875 L 56.691688 14.174844 L 85.039344 -7.086875 L 113.387 14.174844 L 141.734656 -7.086875 L 170.082313 14.174844 L 198.426063 -7.086875 L 226.773719 14.174844 L 255.121375 -7.086875 L 283.469031 14.174844 L 311.816688 -7.086875 " transform="matrix(1,0,0,-1,0.613,100.21)"/>
<path style="fill:none;stroke-width:0.3985;stroke-linecap:butt;stroke-linejoin:miter;stroke:rgb(0%,0%,0%);stroke-opacity:1;stroke-miterlimit:10;" d="M 0.00028125 28.346719 L 28.347938 7.085 L 56.691688 28.346719 L 85.039344 7.085 L 113.387 28.346719 L 141.734656 7.085 L 170.082313 28.346719 L 198.426063 7.085 L 226.773719 28.346719 L 255.121375 7.085 L 283.469031 28.346719 L 311.816688 7.085 " transform="matrix(1,0,0,-1,0.613,100.21)"/>
<path style="fill:none;stroke-width:0.3985;stroke-linecap:butt;stroke-linejoin:miter;stroke:rgb(0%,0%,0%);stroke-opacity:1;stroke-miterlimit:10;" d="M 0.00028125 42.518594 L 28.347938 21.260781 L 56.691688 42.518594 L 85.039344 21.260781 L 113.387 42.518594 L 141.734656 21.260781 L 170.082313 42.518594 L 198.426063 21.260781 L 226.773719 42.518594 L 255.121375 21.260781 L 283.469031 42.518594 L 311.816688 21.260781 " transform="matrix(1,0,0,-1,0.613,100.21)"/>
<path style="fill:none;stroke-width:0.3985;stroke-linecap:butt;stroke-linejoin:miter;stroke:rgb(0%,0%,0%);stroke-opacity:1;stroke-miterlimit:10;" d="M 0.00028125 56.694375 L 28.347938 35.432656 L 56.691688 56.694375 L 85.039344 35.432656 L 113.387 56.694375 L 141.734656 35.432656 L 170.082313 56.694375 L 198.426063 35.432656 L 226.773719 56.694375 L 255.121375 35.432656 L 283.469031 56.694375 L 311.816688 35.432656 " transform="matrix(1,0,0,-1,0.613,100.21)"/>
<path style="fill:none;stroke-width:0.3985;stroke-linecap:butt;stroke-linejoin:miter;stroke:rgb(0%,0%,0%);stroke-opacity:1;stroke-miterlimit:10;" d="M 0.00028125 70.86625 L 28.347938 49.608437 L 56.691688 70.86625 L 85.039344 49.608437 L 113.387 70.86625 L 141.734656 49.608437 L 170.082313 70.86625 L 198.426063 49.608437 L 226.773719 70.86625 L 255.121375 49.608437 L 283.469031 70.86625 L 311.816688 49.608437 " transform="matrix(1,0,0,-1,0.613,100.21)"/>
<path style="fill:none;stroke-width:0.3985;stroke-linecap:butt;stroke-linejoin:miter;stroke:rgb(0%,0%,0%);stroke-opacity:1;stroke-miterlimit:10;" d="M 0.00028125 85.042031 L 28.347938 63.780312 L 56.691688 85.042031 L 85.039344 63.780312 L 113.387 85.042031 L 141.734656 63.780312 L 170.082313 85.042031 L 198.426063 63.780312 L 226.773719 85.042031 L 255.121375 63.780312 L 283.469031 85.042031 L 311.816688 63.780312 " transform="matrix(1,0,0,-1,0.613,100.21)"/>
<path style="fill:none;stroke-width:0.3985;stroke-linecap:butt;stroke-linejoin:miter;stroke:rgb(0%,0%,0%);stroke-opacity:1;stroke-miterlimit:10;" d="M 0.00028125 99.213906 L 28.347938 77.952187 L 56.691688 99.213906 L 85.039344 77.952187 L 113.387 99.213906 L 141.734656 77.952187 L 170.082313 99.213906 L 198.426063 77.952187 L 226.773719 99.213906 L 255.121375 77.952187 L 283.469031 99.213906 " transform="matrix(1,0,0,-1,0.613,100.21)"/>
<path style="fill:none;stroke-width:0.3985;stroke-linecap:butt;stroke-linejoin:miter;stroke:rgb(0%,0%,0%);stroke-opacity:1;stroke-miterlimit:10;" d="M 0.00028125 -0.0009375 L 0.00028125 14.174844 M 0.00028125 28.346719 L 0.00028125 42.518594 M 0.00028125 56.694375 L 0.00028125 70.86625 M 0.00028125 85.042031 L 0.00028125 99.213906 " transform="matrix(1,0,0,-1,0.613,100.21)"/>
<path style="fill:none;stroke-width:0.3985;stroke-linecap:butt;stroke-linejoin:miter;stroke:rgb(0%,0%,0%);stroke-opacity:1;stroke-miterlimit:10;" d="M 56.691688 -0.0009375 L 56.691688 14.174844 M 56.691688 28.346719 L 56.691688 42.518594 M 56.691688 56.694375 L 56.691688 70.86625 M 56.691688 85.042031 L 56.691688 99.213906 " transform="matrix(1,0,0,-1,0.613,100.21)"/>
<path style="fill:none;stroke-width:0.3985;stroke-linecap:butt;stroke-linejoin:miter;stroke:rgb(0%,0%,0%);stroke-opacity:1;stroke-miterlimit:10;" d="M 113.387 -0.0009375 L 113.387 14.174844 M 113.387 28.346719 L 113.387 42.518594 M 113.387 56.694375 L 113.387 70.86625 M 113.387 85.042031 L 113.387 99.213906 " transform="matrix(1,0,0,-1,0.613,100.21)"/>
<path style="fill:none;stroke-width:0.3985;stroke-linecap:butt;stroke-linejoin:miter;stroke:rgb(0%,0%,0%);stroke-opacity:1;stroke-miterlimit:10;" d="M 170.082313 -0.0009375 L 170.082313 14.174844 M 170.082313 28.346719 L 170.082313 42.518594 M 170.082313 56.694375 L 170.082313 70.86625 M 170.082313 85.042031 L 170.082313 99.213906 " transform="matrix(1,0,0,-1,0.613,100.21)"/>
<path style="fill:none;stroke-width:0.3985;stroke-linecap:butt;stroke-linejoin:miter;stroke:rgb(0%,0%,0%);stroke-opacity:1;stroke-miterlimit:10;" d="M 226.773719 -0.0009375 L 226.773719 14.174844 M 226.773719 28.346719 L 226.773719 42.518594 M 226.773719 56.694375 L 226.773719 70.86625 M 226.773719 85.042031 L 226.773719 99.213906 " transform="matrix(1,0,0,-1,0.613,100.21)"/>
<path style="fill:none;stroke-width:0.3985;stroke-linecap:butt;stroke-linejoin:miter;stroke:rgb(0%,0%,0%);stroke-opacity:1;stroke-miterlimit:10;" d="M 283.469031 -0.0009375 L 283.469031 14.174844 M 283.469031 28.346719 L 283.469031 42.518594 M 283.469031 56.694375 L 283.469031 70.86625 M 283.469031 85.042031 L 283.469031 99.213906 " transform="matrix(1,0,0,-1,0.613,100.21)"/>
<path style="fill:none;stroke-width:0.3985;stroke-linecap:butt;stroke-linejoin:miter;stroke:rgb(0%,0%,0%);stroke-opacity:1;stroke-miterlimit:10;" d="M 28.347938 -7.086875 L 28.347938 7.085 M 28.347938 21.260781 L 28.347938 35.432656 M 28.347938 49.608437 L 28.347938 63.780312 " transform="matrix(1,0,0,-1,0.613,100.21)"/>
<path style="fill:none;stroke-width:0.3985;stroke-linecap:butt;stroke-linejoin:miter;stroke:rgb(0%,0%,0%);stroke-opacity:1;stroke-miterlimit:10;" d="M 85.039344 -7.086875 L 85.039344 7.085 M 85.039344 21.260781 L 85.039344 35.432656 M 85.039344 49.608437 L 85.039344 63.780312 " transform="matrix(1,0,0,-1,0.613,100.21)"/>
<path style="fill:none;stroke-width:0.3985;stroke-linecap:butt;stroke-linejoin:miter;stroke:rgb(0%,0%,0%);stroke-opacity:1;stroke-miterlimit:10;" d="M 141.734656 -7.086875 L 141.734656 7.085 M 141.734656 21.260781 L 141.734656 35.432656 M 141.734656 49.608437 L 141.734656 63.780312 " transform="matrix(1,0,0,-1,0.613,100.21)"/>
<path style="fill:none;stroke-width:0.3985;stroke-linecap:butt;stroke-linejoin:miter;stroke:rgb(0%,0%,0%);stroke-opacity:1;stroke-miterlimit:10;" d="M 198.426063 -7.086875 L 198.426063 7.085 M 198.426063 21.260781 L 198.426063 35.432656 M 198.426063 49.608437 L 198.426063 63.780312 " transform="matrix(1,0,0,-1,0.613,100.21)"/>
<path style="fill:none;stroke-width:0.3985;stroke-linecap:butt;stroke-linejoin:miter;stroke:rgb(0%,0%,0%);stroke-opacity:1;stroke-miterlimit:10;" d="M 255.121375 -7.086875 L 255.121375 7.085 M 255.121375 21.260781 L 255.121375 35.432656 M 255.121375 49.608437 L 255.121375 63.780312 " transform="matrix(1,0,0,-1,0.613,100.21)"/>
<path style="fill:none;stroke-width:0.3985;stroke-linecap:butt;stroke-linejoin:miter;stroke:rgb(0%,0%,0%);stroke-opacity:1;stroke-miterlimit:10;" d="M 311.816688 -7.086875 L 311.816688 7.085 M 311.816688 21.260781 L 311.816688 35.432656 M 311.816688 49.608437 L 311.816688 63.780312 " transform="matrix(1,0,0,-1,0.613,100.21)"/>
</g>
</svg>
