<?xml version="1.0" encoding="UTF-8"?>
<svg xmlns="http://www.w3.org/2000/svg" xmlns:xlink="http://www.w3.org/1999/xlink" width="148pt" height="129pt" viewBox="0 0 148 129" version="1.1">
<g id="surface1">
<path style="fill:none;stroke-width:0.3985;stroke-linecap:butt;stroke-linejoin:miter;stroke:rgb(0%,0%,0%);stroke-opacity:1;stroke-miterlimit:10;" d="M 0.0005625 0.001 L 99.215406 0.001 M 12.402906 12.403344 L 111.613844 12.403344 M 24.80525 24.801781 L 124.016188 24.801781 " transform="matrix(1,0,0,-1,2.101,126.501)"/>
<path style="fill-rule:nonzero;fill:rgb(0%,0%,0%);fill-opacity:1;stroke-width:0.3985;stroke-linecap:butt;stroke-linejoin:miter;stroke:rgb(0%,0%,0%);stroke-opacity:1;stroke-miterlimit:10;" d="M 1.488844 0.001 C 1.488844 0.821312 0.820875 1.489281 0.0005625 1.489281 C -0.823656 1.489281 -1.487719 0.821312 -1.487719 0.001 C -1.487719 -0.823219 -0.823656 -1.487281 0.0005625 -1.487281 C 0.820875 -1.487281 1.488844 -0.823219 1.488844 0.001 Z M 1.488844 0.001 " transform="matrix(1,0,0,-1,2.101,126.501)"/>
<path style="fill-rule:nonzero;fill:rgb(0%,0%,0%);fill-opacity:1;stroke-width:0.3985;stroke-linecap:butt;stroke-linejoin:miter;stroke:rgb(0%,0%,0%);stroke-opacity:1;stroke-miterlimit:10;" d="M 51.094313 0.001 C 51.094313 0.821312 50.43025 1.489281 49.606031 1.489281 C 48.785719 1.489281 48.11775 0.821312 48.11775 0.001 C 48.11775 -0.823219 48.785719 -1.487281 49.606031 -1.487281 C 50.43025 -1.487281 51.094313 -0.823219 51.094313 0.001 Z M 51.094313 0.001 " transform="matrix(1,0,0,-1,2.101,126.501)"/>
<path style="fill-rule:nonzero;fill:rgb(0%,0%,0%);fill-opacity:1;stroke-width:0.3985;stroke-linecap:butt;stroke-linejoin:miter;stroke:rgb(0%,0%,0%);stroke-opacity:1;stroke-miterlimit:10;" d="M 100.703688 0.001 C 100.703688 0.821312 100.035719 1.489281 99.215406 1.489281 C 98.391188 1.489281 97.727125 0.821312 97.727125 0.001 C 97.727125 -0.823219 98.391188 -1.487281 99.215406 -1.487281 C 100.035719 -1.487281 100.703688 -0.823219 100.703688 0.001 Z M 100.703688 0.001 " transform="matrix(1,0,0,-1,2.101,126.501)"/>
<path style="fill-rule:nonzero;fill:rgb(0%,0%,0%);fill-opacity:1;stroke-width:0.3985;stroke-linecap:butt;stroke-linejoin:miter;stroke:rgb(0%,0%,0%);stroke-opacity:1;stroke-miterlimit:10;" d="M 13.891188 12.403344 C 13.891188 13.223656 13.223219 13.891625 12.402906 13.891625 C 11.578688 13.891625 10.914625 13.223656 10.914625 12.403344 C 10.914625 11.579125 11.578688 10.915062 12.402906 10.915062 C 13.223219 10.915062 13.891188 11.579125 13.891188 12.403344 Z M 13.891188 12.403344 " transform="matrix(1,0,0,-1,2.101,126.501)"/>
<path style="fill-rule:nonzero;fill:rgb(0%,0%,0%);fill-opacity:1;stroke-width:0.3985;stroke-linecap:butt;stroke-linejoin:miter;stroke:rgb(0%,0%,0%);stroke-opacity:1;stroke-miterlimit:10;" d="M 63.496656 12.403344 C 63.496656 13.223656 62.828688 13.891625 62.008375 13.891625 C 61.188063 13.891625 60.520094 13.223656 60.520094 12.403344 C 60.520094 11.579125 61.188063 10.915062 62.008375 10.915062 C 62.828688 10.915062 63.496656 11.579125 63.496656 12.403344 Z M 63.496656 12.403344 " transform="matrix(1,0,0,-1,2.101,126.501)"/>
<path style="fill-rule:nonzero;fill:rgb(0%,0%,0%);fill-opacity:1;stroke-width:0.3985;stroke-linecap:butt;stroke-linejoin:miter;stroke:rgb(0%,0%,0%);stroke-opacity:1;stroke-miterlimit:10;" d="M 113.102125 12.403344 C 113.102125 13.223656 112.438063 13.891625 111.613844 13.891625 C 110.793531 13.891625 110.125563 13.223656 110.125563 12.403344 C 110.125563 11.579125 110.793531 10.915062 111.613844 10.915062 C 112.438063 10.915062 113.102125 11.579125 113.102125 12.403344 Z M 113.102125 12.403344 " transform="matrix(1,0,0,-1,2.101,126.501)"/>
<path style="fill-rule:nonzero;fill:rgb(0%,0%,0%);fill-opacity:1;stroke-width:0.3985;stroke-linecap:butt;stroke-linejoin:miter;stroke:rgb(0%,0%,0%);stroke-opacity:1;stroke-miterlimit:10;" d="M 26.289625 24.801781 C 26.289625 25.626 25.625563 26.290062 24.80525 26.290062 C 23.981031 26.290062 23.316969 25.626 23.316969 24.801781 C 23.316969 23.981469 23.981031 23.3135 24.80525 23.3135 C 25.625563 23.3135 26.289625 23.981469 26.289625 24.801781 Z M 26.289625 24.801781 " transform="matrix(1,0,0,-1,2.101,126.501)"/>
<path style="fill-rule:nonzero;fill:rgb(0%,0%,0%);fill-opacity:1;stroke-width:0.3985;stroke-linecap:butt;stroke-linejoin:miter;stroke:rgb(0%,0%,0%);stroke-opacity:1;stroke-miterlimit:10;" d="M 75.899 24.801781 C 75.899 25.626 75.231031 26.290062 74.410719 26.290062 C 73.590406 26.290062 72.922438 25.626 72.922438 24.801781 C 72.922438 23.981469 73.590406 23.3135 74.410719 23.3135 C 75.231031 23.3135 75.899 23.981469 75.899 24.801781 Z M 75.899 24.801781 " transform="matrix(1,0,0,-1,2.101,126.501)"/>
<path style="fill-rule:nonzero;fill:rgb(0%,0%,0%);fill-opacity:1;stroke-width:0.3985;stroke-linecap:butt;stroke-linejoin:miter;stroke:rgb(0%,0%,0%);stroke-opacity:1;stroke-miterlimit:10;" d="M 125.504469 24.801781 C 125.504469 25.626 124.840406 26.290062 124.016188 26.290062 C 123.195875 26.290062 122.527906 25.626 122.527906 24.801781 C 122.527906 23.981469 123.195875 23.3135 124.016188 23.3135 C 124.840406 23.3135 125.504469 23.981469 125.504469 24.801781 Z M 125.504469 24.801781 " transform="matrix(1,0,0,-1,2.101,126.501)"/>
<path style="fill:none;stroke-width:0.3985;stroke-linecap:butt;stroke-linejoin:miter;stroke:rgb(0%,0%,0%);stroke-opacity:1;stroke-miterlimit:10;" d="M 9.922438 49.606469 L 109.133375 49.606469 M 22.324781 62.008812 L 121.535719 62.008812 M 34.723219 74.411156 L 133.938063 74.411156 " transform="matrix(1,0,0,-1,2.101,126.501)"/>
<path style="fill-rule:nonzero;fill:rgb(0%,0%,0%);fill-opacity:1;stroke-width:0.3985;stroke-linecap:butt;stroke-linejoin:miter;stroke:rgb(0%,0%,0%);stroke-opacity:1;stroke-miterlimit:10;" d="M 11.410719 49.606469 C 11.410719 50.430687 10.74275 51.09475 9.922438 51.09475 C 9.098219 51.09475 8.434156 50.430687 8.434156 49.606469 C 8.434156 48.786156 9.098219 48.118187 9.922438 48.118187 C 10.74275 48.118187 11.410719 48.786156 11.410719 49.606469 Z M 11.410719 49.606469 " transform="matrix(1,0,0,-1,2.101,126.501)"/>
<path style="fill-rule:nonzero;fill:rgb(0%,0%,0%);fill-opacity:1;stroke-width:0.3985;stroke-linecap:butt;stroke-linejoin:miter;stroke:rgb(0%,0%,0%);stroke-opacity:1;stroke-miterlimit:10;" d="M 61.016188 49.606469 C 61.016188 50.430687 60.348219 51.09475 59.527906 51.09475 C 58.707594 51.09475 58.039625 50.430687 58.039625 49.606469 C 58.039625 48.786156 58.707594 48.118187 59.527906 48.118187 C 60.348219 48.118187 61.016188 48.786156 61.016188 49.606469 Z M 61.016188 49.606469 " transform="matrix(1,0,0,-1,2.101,126.501)"/>
<path style="fill-rule:nonzero;fill:rgb(0%,0%,0%);fill-opacity:1;stroke-width:0.3985;stroke-linecap:butt;stroke-linejoin:miter;stroke:rgb(0%,0%,0%);stroke-opacity:1;stroke-miterlimit:10;" d="M 110.621656 49.606469 C 110.621656 50.430687 109.957594 51.09475 109.133375 51.09475 C 108.313063 51.09475 107.645094 50.430687 107.645094 49.606469 C 107.645094 48.786156 108.313063 48.118187 109.133375 48.118187 C 109.957594 48.118187 110.621656 48.786156 110.621656 49.606469 Z M 110.621656 49.606469 " transform="matrix(1,0,0,-1,2.101,126.501)"/>
<path style="fill-rule:nonzero;fill:rgb(0%,0%,0%);fill-opacity:1;stroke-width:0.3985;stroke-linecap:butt;stroke-linejoin:miter;stroke:rgb(0%,0%,0%);stroke-opacity:1;stroke-miterlimit:10;" d="M 23.809156 62.008812 C 23.809156 62.829125 23.145094 63.497094 22.324781 63.497094 C 21.500563 63.497094 20.8365 62.829125 20.8365 62.008812 C 20.8365 61.1885 21.500563 60.520531 22.324781 60.520531 C 23.145094 60.520531 23.809156 61.1885 23.809156 62.008812 Z M 23.809156 62.008812 " transform="matrix(1,0,0,-1,2.101,126.501)"/>
<path style="fill-rule:nonzero;fill:rgb(0%,0%,0%);fill-opacity:1;stroke-width:0.3985;stroke-linecap:butt;stroke-linejoin:miter;stroke:rgb(0%,0%,0%);stroke-opacity:1;stroke-miterlimit:10;" d="M 73.418531 62.008812 C 73.418531 62.829125 72.750563 63.497094 71.93025 63.497094 C 71.106031 63.497094 70.441969 62.829125 70.441969 62.008812 C 70.441969 61.1885 71.106031 60.520531 71.93025 60.520531 C 72.750563 60.520531 73.418531 61.1885 73.418531 62.008812 Z M 73.418531 62.008812 " transform="matrix(1,0,0,-1,2.101,126.501)"/>
<path style="fill-rule:nonzero;fill:rgb(0%,0%,0%);fill-opacity:1;stroke-width:0.3985;stroke-linecap:butt;stroke-linejoin:miter;stroke:rgb(0%,0%,0%);stroke-opacity:1;stroke-miterlimit:10;" d="M 123.024 62.008812 C 123.024 62.829125 122.359938 63.497094 121.535719 63.497094 C 120.715406 63.497094 120.047438 62.829125 120.047438 62.008812 C 120.047438 61.1885 120.715406 60.520531 121.535719 60.520531 C 122.359938 60.520531 123.024 61.1885 123.024 62.008812 Z M 123.024 62.008812 " transform="matrix(1,0,0,-1,2.101,126.501)"/>
<path style="fill-rule:nonzero;fill:rgb(0%,0%,0%);fill-opacity:1;stroke-width:0.3985;stroke-linecap:butt;stroke-linejoin:miter;stroke:rgb(0%,0%,0%);stroke-opacity:1;stroke-miterlimit:10;" d="M 36.2115 74.411156 C 36.2115 75.231469 35.547438 75.899437 34.723219 75.899437 C 33.902906 75.899437 33.234938 75.231469 33.234938 74.411156 C 33.234938 73.586937 33.902906 72.922875 34.723219 72.922875 C 35.547438 72.922875 36.2115 73.586937 36.2115 74.411156 Z M 36.2115 74.411156 " transform="matrix(1,0,0,-1,2.101,126.501)"/>
<path style="fill-rule:nonzero;fill:rgb(0%,0%,0%);fill-opacity:1;stroke-width:0.3985;stroke-linecap:butt;stroke-linejoin:miter;stroke:rgb(0%,0%,0%);stroke-opacity:1;stroke-miterlimit:10;" d="M 85.820875 74.411156 C 85.820875 75.231469 85.152906 75.899437 84.332594 75.899437 C 83.508375 75.899437 82.844313 75.231469 82.844313 74.411156 C 82.844313 73.586937 83.508375 72.922875 84.332594 72.922875 C 85.152906 72.922875 85.820875 73.586937 85.820875 74.411156 Z M 85.820875 74.411156 " transform="matrix(1,0,0,-1,2.101,126.501)"/>
<path style="fill-rule:nonzero;fill:rgb(0%,0%,0%);fill-opacity:1;stroke-width:0.3985;stroke-linecap:butt;stroke-linejoin:miter;stroke:rgb(0%,0%,0%);stroke-opacity:1;stroke-miterlimit:10;" d="M 135.426344 74.411156 C 135.426344 75.231469 134.762281 75.899437 133.938063 75.899437 C 133.11775 75.899437 132.449781 75.231469 132.449781 74.411156 C 132.449781 73.586937 133.11775 72.922875 133.938063 72.922875 C 134.762281 72.922875 135.426344 73.586937 135.426344 74.411156 Z M 135.426344 74.411156 " transform="matrix(1,0,0,-1,2.101,126.501)"/>
<path style="fill:none;stroke-width:0.3985;stroke-linecap:butt;stroke-linejoin:miter;stroke:rgb(0%,0%,0%);stroke-opacity:1;stroke-miterlimit:10;" d="M 19.844313 99.211937 L 119.05525 99.211937 M 32.24275 111.614281 L 131.457594 111.614281 M 44.645094 124.016625 L 143.859938 124.016625 " transform="matrix(1,0,0,-1,2.101,126.501)"/>
<path style="fill-rule:nonzero;fill:rgb(0%,0%,0%);fill-opacity:1;stroke-width:0.3985;stroke-linecap:butt;stroke-linejoin:miter;stroke:rgb(0%,0%,0%);stroke-opacity:1;stroke-miterlimit:10;" d="M 21.328688 99.211937 C 21.328688 100.036156 20.664625 100.700219 19.844313 100.700219 C 19.020094 100.700219 18.356031 100.036156 18.356031 99.211937 C 18.356031 98.391625 19.020094 97.727562 19.844313 97.727562 C 20.664625 97.727562 21.328688 98.391625 21.328688 99.211937 Z M 21.328688 99.211937 " transform="matrix(1,0,0,-1,2.101,126.501)"/>
<path style="fill-rule:nonzero;fill:rgb(0%,0%,0%);fill-opacity:1;stroke-width:0.3985;stroke-linecap:butt;stroke-linejoin:miter;stroke:rgb(0%,0%,0%);stroke-opacity:1;stroke-miterlimit:10;" d="M 70.938063 99.211937 C 70.938063 100.036156 70.270094 100.700219 69.449781 100.700219 C 68.625563 100.700219 67.9615 100.036156 67.9615 99.211937 C 67.9615 98.391625 68.625563 97.727562 69.449781 97.727562 C 70.270094 97.727562 70.938063 98.391625 70.938063 99.211937 Z M 70.938063 99.211937 " transform="matrix(1,0,0,-1,2.101,126.501)"/>
<path style="fill-rule:nonzero;fill:rgb(0%,0%,0%);fill-opacity:1;stroke-width:0.3985;stroke-linecap:butt;stroke-linejoin:miter;stroke:rgb(0%,0%,0%);stroke-opacity:1;stroke-miterlimit:10;" d="M 120.543531 99.211937 C 120.543531 100.036156 119.879469 100.700219 119.05525 100.700219 C 118.234938 100.700219 117.566969 100.036156 117.566969 99.211937 C 117.566969 98.391625 118.234938 97.727562 119.05525 97.727562 C 119.879469 97.727562 120.543531 98.391625 120.543531 99.211937 Z M 120.543531 99.211937 " transform="matrix(1,0,0,-1,2.101,126.501)"/>
<path style="fill-rule:nonzero;fill:rgb(0%,0%,0%);fill-opacity:1;stroke-width:0.3985;stroke-linecap:butt;stroke-linejoin:miter;stroke:rgb(0%,0%,0%);stroke-opacity:1;stroke-miterlimit:10;" d="M 33.731031 111.614281 C 33.731031 112.4385 33.066969 113.102562 32.24275 113.102562 C 31.422438 113.102562 30.754469 112.4385 30.754469 111.614281 C 30.754469 110.793969 31.422438 110.126 32.24275 110.126 C 33.066969 110.126 33.731031 110.793969 33.731031 111.614281 Z M 33.731031 111.614281 " transform="matrix(1,0,0,-1,2.101,126.501)"/>
<path style="fill-rule:nonzero;fill:rgb(0%,0%,0%);fill-opacity:1;stroke-width:0.3985;stroke-linecap:butt;stroke-linejoin:miter;stroke:rgb(0%,0%,0%);stroke-opacity:1;stroke-miterlimit:10;" d="M 83.340406 111.614281 C 83.340406 112.4385 82.672438 113.102562 81.852125 113.102562 C 81.027906 113.102562 80.363844 112.4385 80.363844 111.614281 C 80.363844 110.793969 81.027906 110.126 81.852125 110.126 C 82.672438 110.126 83.340406 110.793969 83.340406 111.614281 Z M 83.340406 111.614281 " transform="matrix(1,0,0,-1,2.101,126.501)"/>
<path style="fill-rule:nonzero;fill:rgb(0%,0%,0%);fill-opacity:1;stroke-width:0.3985;stroke-linecap:butt;stroke-linejoin:miter;stroke:rgb(0%,0%,0%);stroke-opacity:1;stroke-miterlimit:10;" d="M 132.945875 111.614281 C 132.945875 112.4385 132.281813 113.102562 131.457594 113.102562 C 130.637281 113.102562 129.969313 112.4385 129.969313 111.614281 C 129.969313 110.793969 130.637281 110.126 131.457594 110.126 C 132.281813 110.126 132.945875 110.793969 132.945875 111.614281 Z M 132.945875 111.614281 " transform="matrix(1,0,0,-1,2.101,126.501)"/>
<path style="fill-rule:nonzero;fill:rgb(0%,0%,0%);fill-opacity:1;stroke-width:0.3985;stroke-linecap:butt;stroke-linejoin:miter;stroke:rgb(0%,0%,0%);stroke-opacity:1;stroke-miterlimit:10;" d="M 46.133375 124.016625 C 46.133375 124.840844 45.469313 125.504906 44.645094 125.504906 C 43.824781 125.504906 43.156813 124.840844 43.156813 124.016625 C 43.156813 123.196312 43.824781 122.528344 44.645094 122.528344 C 45.469313 122.528344 46.133375 123.196312 46.133375 124.016625 Z M 46.133375 124.016625 " transform="matrix(1,0,0,-1,2.101,126.501)"/>
<path style="fill-rule:nonzero;fill:rgb(0%,0%,0%);fill-opacity:1;stroke-width:0.3985;stroke-linecap:butt;stroke-linejoin:miter;stroke:rgb(0%,0%,0%);stroke-opacity:1;stroke-miterlimit:10;" d="M 95.74275 124.016625 C 95.74275 124.840844 95.074781 125.504906 94.254469 125.504906 C 93.43025 125.504906 92.766188 124.840844 92.766188 124.016625 C 92.766188 123.196312 93.43025 122.528344 94.254469 122.528344 C 95.074781 122.528344 95.74275 123.196312 95.74275 124.016625 Z M 95.74275 124.016625 " transform="matrix(1,0,0,-1,2.101,126.501)"/>
<path style="fill-rule:nonzero;fill:rgb(0%,0%,0%);fill-opacity:1;stroke-width:0.3985;stroke-linecap:butt;stroke-linejoin:miter;stroke:rgb(0%,0%,0%);stroke-opacity:1;stroke-miterlimit:10;" d="M 145.348219 124.016625 C 145.348219 124.840844 144.68025 125.504906 143.859938 125.504906 C 143.039625 125.504906 142.371656 124.840844 142.371656 124.016625 C 142.371656 123.196312 143.039625 122.528344 143.859938 122.528344 C 144.68025 122.528344 145.348219 123.196312 145.348219 124.016625 Z M 145.348219 124.016625 " transform="matrix(1,0,0,-1,2.101,126.501)"/>
<path style="fill:none;stroke-width:0.3985;stroke-linecap:butt;stroke-linejoin:miter;stroke:rgb(0%,0%,0%);stroke-opacity:1;stroke-miterlimit:10;" d="M 0.0005625 0.001 L 19.844313 99.211937 M 12.402906 12.403344 L 32.24275 111.614281 M 24.80525 24.801781 L 44.645094 124.016625 " transform="matrix(1,0,0,-1,2.101,126.501)"/>
<path style="fill:none;stroke-width:0.3985;stroke-linecap:butt;stroke-linejoin:miter;stroke:rgb(0%,0%,0%);stroke-opacity:1;stroke-miterlimit:10;" d="M 49.606031 0.001 L 69.449781 99.211937 M 62.008375 12.403344 L 81.852125 111.614281 M 74.410719 24.801781 L 94.254469 124.016625 " transform="matrix(1,0,0,-1,2.101,126.501)"/>
<path style="fill:none;stroke-width:0.3985;stroke-linecap:butt;stroke-linejoin:miter;stroke:rgb(0%,0%,0%);stroke-opacity:1;stroke-miterlimit:10;" d="M 99.215406 0.001 L 119.05525 99.211937 M 111.613844 111.614281 L 131.457594 111.614281 M 124.016188 24.801781 L 143.859938 124.016625 " transform="matrix(1,0,0,-1,2.101,126.501)"/>
<path style="fill:none;stroke-width:0.3985;stroke-linecap:butt;stroke-linejoin:miter;stroke:rgb(0%,0%,0%);stroke-opacity:1;stroke-miterlimit:10;" d="M 0.0005625 0.001 L 24.80525 24.801781 M 49.606031 0.001 L 74.410719 24.801781 M 99.215406 0.001 L 124.016188 24.801781 " transform="matrix(1,0,0,-1,2.101,126.501)"/>
<path style="fill:none;stroke-width:0.3985;stroke-linecap:butt;stroke-linejoin:miter;stroke:rgb(0%,0%,0%);stroke-opacity:1;stroke-miterlimit:10;" d="M 9.922438 49.606469 L 34.723219 74.411156 M 59.527906 49.606469 L 84.332594 74.411156 M 109.133375 49.606469 L 133.938063 74.411156 " transform="matrix(1,0,0,-1,2.101,126.501)"/>
<path style="fill:none;stroke-width:0.3985;stroke-linecap:butt;stroke-linejoin:miter;stroke:rgb(0%,0%,0%);stroke-opacity:1;stroke-miterlimit:10;" d="M 19.844313 99.211937 L 44.645094 124.016625 M 69.449781 99.211937 L 94.254469 124.016625 M 119.05525 99.211937 L 143.859938 124.016625 " transform="matrix(1,0,0,-1,2.101,126.501)"/>
</g>
</svg>
